<?xml version="1.0" encoding="UTF-8"?>
<svg version="1.1" xmlns="http://www.w3.org/2000/svg" width="1040" height="920">
<path d="M0 0 C59.4 0 118.8 0 180 0 C180 6.6 180 13.2 180 20 C186.6 20 193.2 20 200 20 C200 53 200 86 200 120 C193.4 120 186.8 120 180 120 C180 133.2 180 146.4 180 160 C186.6 160 193.2 160 200 160 C200 193 200 226 200 260 C193.4 260 186.8 260 180 260 C180 266.6 180 273.2 180 280 C120.6 280 61.2 280 0 280 C0 187.6 0 95.2 0 0 Z M40 40 C40 66.4 40 92.8 40 120 C79.6 120 119.2 120 160 120 C160 93.6 160 67.2 160 40 C120.4 40 80.8 40 40 40 Z M40 160 C40 186.4 40 212.8 40 240 C79.6 240 119.2 240 160 240 C160 213.6 160 187.2 160 160 C120.4 160 80.8 160 40 160 Z " fill="#000000" transform="translate(660,160)"/>
<path d="M0 0 C66 0 132 0 200 0 C200 6.6 200 13.2 200 20 C206.6 20 213.2 20 220 20 C220 99.2 220 178.4 220 260 C213.4 260 206.8 260 200 260 C200 266.6 200 273.2 200 280 C134 280 68 280 0 280 C0 266.8 0 253.6 0 240 C6.6 240 13.2 240 20 240 C20 174 20 108 20 40 C13.4 40 6.8 40 0 40 C0 26.8 0 13.6 0 0 Z M60 40 C60 106 60 172 60 240 C99.6 240 139.2 240 180 240 C180 174 180 108 180 40 C140.4 40 100.8 40 60 40 Z " fill="#000000" transform="translate(160,160)"/>
<path d="M0 0 C59.4 0 118.8 0 180 0 C180 6.6 180 13.2 180 20 C186.6 20 193.2 20 200 20 C200 39.8 200 59.6 200 80 C186.8 80 173.6 80 160 80 C160 66.8 160 53.6 160 40 C120.4 40 80.8 40 40 40 C40 106 40 172 40 240 C79.6 240 119.2 240 160 240 C160 213.6 160 187.2 160 160 C146.8 160 133.6 160 120 160 C120 146.8 120 133.6 120 120 C139.8 120 159.6 120 180 120 C180 126.6 180 133.2 180 140 C186.6 140 193.2 140 200 140 C200 179.6 200 219.2 200 260 C193.4 260 186.8 260 180 260 C180 266.6 180 273.2 180 280 C120.6 280 61.2 280 0 280 C0 187.6 0 95.2 0 0 Z " fill="#000000" transform="translate(660,480)"/>
<path d="M0 0 C66 0 132 0 200 0 C200 6.6 200 13.2 200 20 C193.4 20 186.8 20 180 20 C180 26.6 180 33.2 180 40 C133.8 40 87.6 40 40 40 C40 66.4 40 92.8 40 120 C79.6 120 119.2 120 160 120 C160 133.2 160 146.4 160 160 C120.4 160 80.8 160 40 160 C40 186.4 40 212.8 40 240 C86.2 240 132.4 240 180 240 C180 246.6 180 253.2 180 260 C186.6 260 193.2 260 200 260 C200 266.6 200 273.2 200 280 C134 280 68 280 0 280 C0 187.6 0 95.2 0 0 Z " fill="#000000" transform="translate(420,480)"/>
<path d="M0 0 C66 0 132 0 200 0 C200 6.6 200 13.2 200 20 C193.4 20 186.8 20 180 20 C180 26.6 180 33.2 180 40 C133.8 40 87.6 40 40 40 C40 66.4 40 92.8 40 120 C79.6 120 119.2 120 160 120 C160 133.2 160 146.4 160 160 C120.4 160 80.8 160 40 160 C40 186.4 40 212.8 40 240 C86.2 240 132.4 240 180 240 C180 246.6 180 253.2 180 260 C186.6 260 193.2 260 200 260 C200 266.6 200 273.2 200 280 C134 280 68 280 0 280 C0 187.6 0 95.2 0 0 Z " fill="#000000" transform="translate(420,160)"/>
<path d="M0 0 C13.2 0 26.4 0 40 0 C40 79.2 40 158.4 40 240 C86.2 240 132.4 240 180 240 C180 246.6 180 253.2 180 260 C186.6 260 193.2 260 200 260 C200 266.6 200 273.2 200 280 C140.6 280 81.2 280 20 280 C20 273.4 20 266.8 20 260 C13.4 260 6.8 260 0 260 C0 174.2 0 88.4 0 0 Z " fill="#000000" transform="translate(180,480)"/>
<path d="M0 0 C13.2 0 26.4 0 40 0 C40 52.8 40 105.6 40 160 C59.8 160 79.6 160 100 160 C100 173.2 100 186.4 100 200 C67 200 34 200 0 200 C0 134 0 68 0 0 Z " fill="#000000" transform="translate(240,500)"/>
<path d="M0 0 C26.4 0 52.8 0 80 0 C80 13.2 80 26.4 80 40 C66.8 40 53.6 40 40 40 C40 66.4 40 92.8 40 120 C53.2 120 66.4 120 80 120 C80 133.2 80 146.4 80 160 C53.6 160 27.2 160 0 160 C0 107.2 0 54.4 0 0 Z " fill="#000000" transform="translate(720,540)"/>
<path d="M0 0 C13.2 0 26.4 0 40 0 C40 52.8 40 105.6 40 160 C26.8 160 13.6 160 0 160 C0 107.2 0 54.4 0 0 Z " fill="#000000" transform="translate(260,220)"/>
<path d="M0 0 C26.4 0 52.8 0 80 0 C80 13.2 80 26.4 80 40 C53.6 40 27.2 40 0 40 C0 26.8 0 13.6 0 0 Z " fill="#000000" transform="translate(480,660)"/>
<path d="M0 0 C26.4 0 52.8 0 80 0 C80 13.2 80 26.4 80 40 C53.6 40 27.2 40 0 40 C0 26.8 0 13.6 0 0 Z " fill="#000000" transform="translate(480,540)"/>
<path d="M0 0 C26.4 0 52.8 0 80 0 C80 13.2 80 26.4 80 40 C53.6 40 27.2 40 0 40 C0 26.8 0 13.6 0 0 Z " fill="#000000" transform="translate(720,340)"/>
<path d="M0 0 C26.4 0 52.8 0 80 0 C80 13.2 80 26.4 80 40 C53.6 40 27.2 40 0 40 C0 26.8 0 13.6 0 0 Z " fill="#000000" transform="translate(480,340)"/>
<path d="M0 0 C26.4 0 52.8 0 80 0 C80 13.2 80 26.4 80 40 C53.6 40 27.2 40 0 40 C0 26.8 0 13.6 0 0 Z " fill="#000000" transform="translate(720,220)"/>
<path d="M0 0 C26.4 0 52.8 0 80 0 C80 13.2 80 26.4 80 40 C53.6 40 27.2 40 0 40 C0 26.8 0 13.6 0 0 Z " fill="#000000" transform="translate(480,220)"/>
</svg>
